<svg xmlns="http://www.w3.org/2000/svg" xmlns:xlink="http://www.w3.org/1999/xlink" width="230" height="176" viewBox="0 0 230 176"><defs><clipPath id="a"><rect width="230" height="176" fill="none"/></clipPath></defs><g clip-path="url(#a)"><path d="M102.012,458.87c0,3.9-2.108,5.777-6.245,5.777h-.078c-4.137,0-6.245-1.835-6.245-5.777V442.476c0-3.747,2.108-5.777,6.245-5.777h.078c4.138,0,6.245,2.03,6.245,5.777v4.684H99.9v-3.982c0-3.2-1.132-4.528-4.177-4.528s-4.176,1.327-4.176,4.528v14.988c0,3.2,1.132,4.528,4.176,4.528s4.177-1.327,4.177-4.528v-4.644h2.108Z" transform="translate(-59.007 -288.094)" fill="#00375c"/><path d="M155.447,464.941H145.182V437.618h2.108v25.371h8.157Z" transform="translate(-95.778 -288.7)" fill="#00375c"/><rect width="2.108" height="27.323" transform="translate(64.742 148.917)" fill="#00375c"/><path d="M226.35,460.335h-1.21l-6.4-17.37v21.976h-1.991V437.618h2.069l6.87,18.931,6.948-18.931h2.186v27.323h-2.108V442.965Z" transform="translate(-142.991 -288.7)" fill="#00375c"/><path d="M295.728,457.915h-7.338l-1.522,7.026h-2.108l6.09-27.323h2.42l6.167,27.323H297.25ZM295.3,456l-3.24-15.067L288.819,456Z" transform="translate(-187.858 -288.701)" fill="#00375c"/><path d="M347.7,439.569h-5.152V464.94H340.44V439.569h-5.153v-1.951H347.7Z" transform="translate(-221.192 -288.7)" fill="#00375c"/><path d="M385.982,464.941V437.618h10.734v1.952H388.09v10.539h7.416v1.951H388.09v10.929h8.743v1.952Z" transform="translate(-254.636 -288.7)" fill="#00375c"/><rect width="2.108" height="27.323" transform="translate(153.814 148.917)" fill="#00375c"/><path d="M478.5,464.941V437.618h2.186l8.938,22.327V437.618h2.03v27.323h-2.069l-9.056-22.483v22.483Z" transform="translate(-315.67 -288.7)" fill="#00375c"/><path d="M549.485,443.394v15.77c0,3.826-2.107,5.777-6.245,5.777h-6.362V437.617h6.362c4.138,0,6.245,1.952,6.245,5.776m-6.4-3.825h-4.1v23.42h4.1c3.083,0,4.294-1.288,4.294-4.528V444.1c0-3.24-1.21-4.528-4.294-4.528" transform="translate(-354.183 -288.7)" fill="#00375c"/><path d="M593.19,464.941V437.618h10.734v1.952H595.3v10.539h7.416v1.951H595.3v10.929h8.743v1.952Z" transform="translate(-391.333 -288.7)" fill="#00375c"/><path d="M644.937,450.927l5.855,14.013h-2.3l-4.918-12.1-4.879,12.1h-2.264l5.972-14.169-5.542-13.154H639.2l4.528,11.4,4.255-11.4h2.224Z" transform="translate(-419.857 -288.7)" fill="#00375c"/><path d="M0,437.525H13.814v5.515H6.231v5.473H13.8l.009,5.428H6.241L6.231,459.5h7.583v5.436H0Z" transform="translate(0 -288.639)" fill="#00375c"/><path d="M56.839,453.949H48.6V450.66h4.523V447.4H48.611l-.005-3.237h4.511l.005-3.317H48.6V437.6h8.24Z" transform="translate(-32.061 -288.688)" fill="#00375c"/><path d="M0,0H67.744V26.84H26.839V54.325h40.81l.045,26.794H26.848L26.8,108.964H67.744V135.8H0Z" transform="translate(0 0)" fill="#00375c"/><path d="M238.95,0h67.744V26.84h-40.9V54.325H306.6l.045,26.794H265.8l-.045,27.845h40.941V135.8H238.95Z" transform="translate(-157.637 0)" fill="#00375c"/><path d="M545.694,0H477.949V26.84h40.9V54.325h-40.81L478,81.119h40.846l.045,27.845H477.949V135.8h67.745Z" transform="translate(-315.308 0)" fill="#00375c"/></g></svg>